# xmcd CD database file
#
# Track frame offsets:
#	150
#	15474
#	40277
#	56207
#	71696
#	84511
#	99210
#	120036
#	137586
#	159272
#	183062
#	205506
#	219232
#	238318
#	251385
#	261790
#
# Disc length: 3696 seconds
#
# Revision: 1
# Processed by: cddbd v1.5.2PL0 Copyright (c) Steve Scherf et al.
# Submitted via: CDex 1.51
#
DISCID=c60e6e10
DTITLE=Celtica - Celtica CD 1
DYEAR=1900
DGENRE=New Age
TTITLE0=Aine Furey - Sweetest summer rain
TTITLE1=Alan Stivell - Brian Boru
TTITLE2=Alan Stivell - Cease fire
TTITLE3=Alternature - For I belong to you
TTITLE4=Alternature - Over the water blue
TTITLE5=Anuna - Winter, fire and snow
TTITLE6=Capercaillie - Nil Si I nGra
TTITLE7=Caroline Lavelle - Anima rising
TTITLE8=Clannad - An Gleann
TTITLE9=Clannad - Fadò
TTITLE10=Cuig - Hall's balls
TTITLE11=Eimear Quinn - The voice
TTITLE12=Joanic Madden - Women of Ireland (Mna na h'Eireann)
TTITLE13=Joanie Madden - The otter's nest (Richie Dwyer's)
TTITLE14=John McSherry - Sult theme
TTITLE15=John Williams - Within a mile of Dublin ... 
EXTD=
EXTT0=
EXTT1=
EXTT2=
EXTT3=
EXTT4=
EXTT5=
EXTT6=
EXTT7=
EXTT8=
EXTT9=
EXTT10=
EXTT11=
EXTT12=
EXTT13=
EXTT14=
EXTT15=
PLAYORDER=
